<svg width="1200" height="800" xmlns="http://www.w3.org/2000/svg">
  <defs>
    <style>
      .bg { fill: #1e1e1e; }
      .panel { fill: #252526; stroke: #3c3c3c; stroke-width: 2; }
      .outline { fill: none; stroke: #007acc; stroke-width: 2; stroke-dasharray: 4, 4; }
      .label { fill: #d4d4d4; font-family: 'Segoe UI', Arial, sans-serif; font-size: 13px; font-weight: 500; }
      .fieldLabel { fill: #007acc; font-family: 'Segoe UI', Arial, sans-serif; font-size: 12px; font-weight: 600; text-anchor: middle; }
      .smallLabel { fill: #a0a0a0; font-family: 'Segoe UI', Arial, sans-serif; font-size: 11px; }
      .title { fill: #d4d4d4; font-family: 'Segoe UI', Arial, sans-serif; font-size: 16px; font-weight: bold; }
    </style>
  </defs>

  <!-- Background -->
  <rect width="1200" height="800" class="bg"/>

  <!-- Title Bar -->
  <rect x="0" y="0" width="1200" height="32" class="panel"/>
  <text x="600" y="22" class="fieldLabel">&lt; Title Bar / Menu Bar &gt;</text>

  <!-- Activity Bar (far left) -->
  <rect x="0" y="32" width="50" height="736" class="panel"/>
  <text x="25" y="52" class="fieldLabel" transform="rotate(-90 25 52)" text-anchor="middle">&lt; Activity Bar &gt;</text>
  <circle cx="25" cy="65" r="12" fill="#007acc"/>
  <circle cx="25" cy="105" r="12" fill="#404040"/>
  <circle cx="25" cy="145" r="12" fill="#404040"/>
  <circle cx="25" cy="185" r="12" fill="#404040"/>
  <circle cx="25" cy="225" r="12" fill="#404040"/>

  <!-- Side Bar -->
  <rect x="50" y="32" width="250" height="736" class="panel"/>
  <text x="175" y="55" class="label">&lt; Side Bar View &gt;</text>
  <rect x="60" y="65" width="230" height="680" class="outline" rx="3"/>
  <text x="175" y="400" class="fieldLabel" text-anchor="middle">&lt; Explorer / Search / SCM / Debug / Extensions &gt;</text>

  <!-- Editor Area -->
  <rect x="300" y="32" width="870" height="736" class="panel"/>

  <!-- Breadcrumbs -->
  <rect x="300" y="32" width="870" height="30" fill="#2d2d30" stroke="#3c3c3c" stroke-width="1"/>
  <text x="735" y="52" class="fieldLabel">&lt; Breadcrumbs &gt;</text>

  <!-- Editor Tabs -->
  <rect x="300" y="62" width="870" height="35" fill="#1e1e1e" stroke="#3c3c3c" stroke-width="1"/>
  <text x="735" y="86" class="fieldLabel">&lt; Editor Tabs &gt;</text>

  <!-- Main Editor with outline -->
  <rect x="300" y="97" width="750" height="570" class="outline" rx="3"/>
  <text x="575" y="400" class="fieldLabel" text-anchor="middle">&lt; Editor Area &gt;</text>

  <!-- Sessions Panel on right side -->
  <rect x="1050" y="97" width="120" height="570" fill="#252526" stroke="#3c3c3c" stroke-width="2"/>
  <text x="1110" y="55" class="label">&lt; Sessions &gt;</text>
  <rect x="1060" y="115" width="100" height="535" class="outline" rx="3"/>
  <text x="1110" y="400" class="fieldLabel" text-anchor="middle" transform="rotate(-90 1110 400)">&lt; Live Share / Collaboration &gt;</text>

  <!-- Minimap on far right edge -->
  <rect x="1170" y="97" width="30" height="570" fill="#252526" stroke="#3c3c3c" stroke-width="1"/>
  <text x="1185" y="400" class="fieldLabel" text-anchor="middle" transform="rotate(-90 1185 400)">&lt; Minimap &gt;</text>

  <!-- Panel (bottom) with outline -->
  <rect x="300" y="667" width="870" height="101" class="outline" rx="3"/>
  
  <!-- Panel tabs header -->
  <rect x="300" y="667" width="870" height="28" fill="#2d2d30" stroke="#3c3c3c" stroke-width="1"/>
  <text x="735" y="686" class="fieldLabel">&lt; Terminal / Output / Debug Console / Problems &gt;</text>

  <!-- Panel content area -->
  <rect x="310" y="705" width="850" height="55" fill="#1e1e1e" stroke="#3c3c3c" stroke-width="1" stroke-dasharray="4,4"/>
  <text x="735" y="740" class="fieldLabel" text-anchor="middle">&lt; Panel Output / Content &gt;</text>

  <!-- Status Bar -->
  <rect x="0" y="768" width="1200" height="32" class="panel"/>
  <text x="100" y="788" class="fieldLabel">&lt; Branch &gt;</text>
  <text x="250" y="788" class="fieldLabel">&lt; Ln/Col &gt;</text>
  <text x="400" y="788" class="fieldLabel">&lt; Encoding &gt;</text>
  <text x="550" y="788" class="fieldLabel">&lt; EOL &gt;</text>
  <text x="700" y="788" class="fieldLabel">&lt; Language &gt;</text>
  <text x="900" y="788" class="fieldLabel">&lt; Problems &gt;</text>
  <text x="1050" y="788" class="fieldLabel">&lt; Remote &gt;</text>
</svg>
